<svg width="78" height="78" viewBox="0 0 78 78" fill="none" xmlns="http://www.w3.org/2000/svg" xmlns:xlink="http://www.w3.org/1999/xlink">
<mask id="mask_0_i_91_3268;20_977" style="mask-type:alpha" maskUnits="userSpaceOnUse" x="0" y="-1" width="39" height="39">
<rect  x="0" y="-1" width="78" height="78" fill="#D9D9D9"/>
</mask>
<g mask="url(#mask_0_i_91_3268;20_977)">
<path d="M19.013,54.575C21.775,52.463 24.862,50.797 28.275,49.578C31.688,48.359 35.263,47.75 39,47.75C42.737,47.75 46.312,48.359 49.725,49.578C53.138,50.797 56.225,52.463 58.987,54.575C60.883,52.354 62.359,49.835 63.416,47.019C64.472,44.202 65,41.196 65,38C65,30.796 62.468,24.661 57.403,19.597C52.339,14.532 46.204,12 39,12C31.796,12 25.661,14.532 20.597,19.597C15.532,24.661 13,30.796 13,38C13,41.196 13.528,44.202 14.584,47.019C15.641,49.835 17.117,52.354 19.013,54.575ZM39,41.25C35.804,41.25 33.109,40.153 30.916,37.959C28.722,35.766 27.625,33.071 27.625,29.875C27.625,26.679 28.722,23.984 30.916,21.791C33.109,19.597 35.804,18.5 39,18.5C42.196,18.5 44.891,19.597 47.084,21.791C49.278,23.984 50.375,26.679 50.375,29.875C50.375,33.071 49.278,35.766 47.084,37.959C44.891,40.153 42.196,41.25 39,41.25ZM39,70.5C34.504,70.5 30.279,69.647 26.325,67.941C22.371,66.234 18.931,63.919 16.006,60.994C13.081,58.069 10.766,54.629 9.059,50.675C7.353,46.721 6.5,42.496 6.5,38C6.5,33.504 7.353,29.279 9.059,25.325C10.766,21.371 13.081,17.931 16.006,15.006C18.931,12.081 22.371,9.766 26.325,8.059C30.279,6.353 34.504,5.5 39,5.5C43.496,5.5 47.721,6.353 51.675,8.059C55.629,9.766 59.069,12.081 61.994,15.006C64.919,17.931 67.234,21.371 68.941,25.325C70.647,29.279 71.5,33.504 71.5,38C71.5,42.496 70.647,46.721 68.941,50.675C67.234,54.629 64.919,58.069 61.994,60.994C59.069,63.919 55.629,66.234 51.675,67.941C47.721,69.647 43.496,70.5 39,70.5ZM39,64C41.871,64 44.579,63.58 47.125,62.741C49.671,61.901 52,60.696 54.113,59.125C52,57.554 49.671,56.349 47.125,55.509C44.579,54.67 41.871,54.25 39,54.25C36.129,54.25 33.421,54.67 30.875,55.509C28.329,56.349 26,57.554 23.888,59.125C26,60.696 28.329,61.901 30.875,62.741C33.421,63.58 36.129,64 39,64ZM39,34.75C40.408,34.75 41.573,34.29 42.494,33.369C43.415,32.448 43.875,31.283 43.875,29.875C43.875,28.467 43.415,27.302 42.494,26.381C41.573,25.46 40.408,25 39,25C37.592,25 36.427,25.46 35.506,26.381C34.585,27.302 34.125,28.467 34.125,29.875C34.125,31.283 34.585,32.448 35.506,33.369C36.427,34.29 37.592,34.75 39,34.75Z" fill="#2B2B2B"/>
</g>
</svg>
