<svg width="76" height="76" viewBox="0 0 76 76" fill="none" xmlns="http://www.w3.org/2000/svg" xmlns:xlink="http://www.w3.org/1999/xlink">
<mask id="mask_0_i_91_3268;120_6215" style="mask-type:alpha" maskUnits="userSpaceOnUse" x="0" y="0" width="38" height="38">
<rect  x="0" y="0" width="76" height="76" fill="#D9D9D9"/>
</mask>
<g mask="url(#mask_0_i_91_3268;120_6215)">
<path d="M15.833,69.667L15.833,63.334L34.833,63.334L34.833,50.667L28.5,50.667C24.119,50.667 20.385,49.124 17.298,46.036C14.21,42.949 12.667,39.215 12.667,34.834C12.667,31.667 13.537,28.751 15.279,26.086C17.021,23.421 19.369,21.481 22.325,20.267C22.8,16.309 24.528,12.997 27.51,10.332C30.492,7.667 33.989,6.334 38,6.334C42.011,6.334 45.508,7.667 48.49,10.332C51.471,12.997 53.2,16.309 53.675,20.267C56.63,21.481 58.979,23.421 60.721,26.086C62.462,28.751 63.333,31.667 63.333,34.834C63.333,39.215 61.79,42.949 58.702,46.036C55.615,49.124 51.88,50.667 47.5,50.667L41.167,50.667L41.167,63.334L60.167,63.334L60.167,69.667L15.833,69.667ZM28.5,44.334L47.5,44.334C50.139,44.334 52.382,43.41 54.229,41.563C56.076,39.716 57,37.473 57,34.834C57,32.934 56.459,31.192 55.377,29.609C54.295,28.026 52.883,26.865 51.142,26.126L47.817,24.701L47.342,21.059C47.025,18.684 45.983,16.692 44.215,15.082C42.446,13.472 40.375,12.667 38,12.667C35.625,12.667 33.553,13.472 31.785,15.082C30.017,16.692 28.975,18.684 28.658,21.059L28.183,24.701L24.858,26.126C23.117,26.865 21.705,28.026 20.623,29.609C19.541,31.192 19,32.934 19,34.834C19,37.473 19.923,39.716 21.771,41.563C23.618,43.41 25.861,44.334 28.5,44.334Z" fill="#1C1B1F"/>
</g>
</svg>
