<svg width="82" height="82" viewBox="0 0 82 82" fill="none" xmlns="http://www.w3.org/2000/svg" xmlns:xlink="http://www.w3.org/1999/xlink">
<path d="M80,40.001C80,62.093 62.091,80.002 39.999,80.002C17.909,80 0,62.091 0,40.001C0,17.909 17.909,0 40.001,0C62.093,0 80.002,17.909 80.002,40.001L80,40.001Z" fill="#2B2B2B"/>
<path d="M51.852,36.897L51.186,42.249C51.073,43.143 50.316,43.815 49.418,43.815L40.75,43.815L40.75,66.189C39.836,66.272 38.91,66.314 37.974,66.314C35.88,66.314 33.837,66.105 31.862,65.706L31.862,43.815L25.195,43.815C24.583,43.815 24.084,43.314 24.084,42.7L24.084,36.003C24.084,35.389 24.583,34.888 25.195,34.888L31.862,34.888L31.862,24.845C31.862,18.683 36.836,13.688 42.975,13.688L50.753,13.688C51.365,13.688 51.864,14.189 51.864,14.803L51.864,21.499C51.864,22.113 51.365,22.615 50.753,22.615L45.196,22.615C42.742,22.615 40.752,24.612 40.752,27.078L40.752,34.89L50.086,34.89C51.157,34.89 51.985,35.832 51.854,36.899L51.852,36.897Z" fill="#A9C0A6"/>
</svg>
